<svg enable-background="new 0 0 60 60" viewBox="0 0 60 60" width="60" height="60" xmlns="http://www.w3.org/2000/svg"><path clip-rule="evenodd" d="m3.753 60c-2.073 0-3.753-1.667-3.753-3.753v-52.494c0-2.073 1.667-3.753 3.753-3.753h52.494c2.073 0 3.753 1.667 3.753 3.753v52.493c0 2.074-1.667 3.754-3.753 3.754z" fill="#b10007" fill-rule="evenodd"/><path d="m42.114 26.455h-24.228c-.473 0-.886.414-.886.886v14.477c0 1.3 1.064 2.364 2.364 2.364h21.273c1.3 0 2.364-1.064 2.364-2.364v-14.477c-.001-.473-.415-.886-.887-.886zm-16.25 13c0 .355-.236.591-.591.591h-2.364c-.355 0-.591-.236-.591-.591v-2.364c0-.355.236-.591.591-.591h2.364c.355 0 .591.236.591.591zm0-5.91c0 .355-.236.591-.591.591h-2.364c-.355 0-.591-.236-.591-.591v-2.364c0-.355.236-.591.591-.591h2.364c.355 0 .591.236.591.591zm5.909 5.91c0 .355-.236.591-.591.591h-2.364c-.355 0-.591-.236-.591-.591v-2.364c0-.355.236-.591.591-.591h2.364c.355 0 .591.236.591.591zm0-5.91c0 .355-.236.591-.591.591h-2.364c-.355 0-.591-.236-.591-.591v-2.364c0-.355.236-.591.591-.591h2.364c.355 0 .591.236.591.591zm5.909 5.91c0 .355-.236.591-.591.591h-2.364c-.355 0-.591-.236-.591-.591v-2.364c0-.355.236-.591.591-.591h2.364c.355 0 .591.236.591.591zm0-5.91c0 .355-.236.591-.591.591h-2.364c-.355 0-.591-.236-.591-.591v-2.364c0-.355.236-.591.591-.591h2.364c.355 0 .591.236.591.591zm2.954-14.772h-2.955v-1.182c0-.945-.768-1.773-1.773-1.773-.945 0-1.773.768-1.773 1.773v1.182h-8.273v-1.182c0-.945-.768-1.773-1.773-1.773-.945 0-1.773.768-1.773 1.773v1.182h-2.955c-1.3 0-2.364 1.064-2.364 2.364v1.477c0 .473.414.886.886.886h24.227c.473 0 .886-.414.886-.886v-1.477c.004-1.301-1.06-2.364-2.36-2.364z" fill="#fff"/></svg>