<svg xmlns="http://www.w3.org/2000/svg" aria-label="case" enable-background="new 0 0 60 60" focusable="false" height="60" role="img" viewBox="0 0 60 60" width="60"><title>case</title><path clip-rule="evenodd" d="m3.753 60c-2.073 0-3.753-1.667-3.753-3.753v-52.494c0-2.073 1.667-3.753 3.753-3.753h52.494c2.073 0 3.753 1.667 3.753 3.753v52.493c0 2.074-1.667 3.754-3.753 3.754z" fill="#009ddc" fill-rule="evenodd"></path><path d="m23.125 21.875h2.5c.375 0 .625-.25.625-.625v-1.25h7.5v1.25c0 .375.25.625.625.625h2.5c.375 0 .625-.25.625-.625v-1.562c0-1.875-1.562-3.438-3.438-3.438h-8.188c-1.875 0-3.375 1.5-3.375 3.375v1.625c.001.375.251.625.626.625zm19.375 2.5h-25c-1.375 0-2.5 1.125-2.5 2.5v14.375c0 1.375 1.125 2.5 2.5 2.5h25c1.375 0 2.5-1.125 2.5-2.5v-14.375c0-1.375-1.125-2.5-2.5-2.5z" fill="#fff"></path></svg>