<svg enable-background="new 0 0 60 60" viewBox="0 0 60 60" width="60" height="60" xmlns="http://www.w3.org/2000/svg"><path clip-rule="evenodd" d="m3.753 60c-2.073 0-3.753-1.667-3.753-3.753v-52.494c0-2.073 1.667-3.753 3.753-3.753h52.494c2.073 0 3.753 1.667 3.753 3.753v52.493c0 2.074-1.667 3.754-3.753 3.754z" fill="#009730" fill-rule="evenodd"/><path d="m40.833 23.37h-12.306c-.78 0-1.473-.433-1.907-1.083l-1.907-3.293c-.347-.693-1.04-1.127-1.863-1.127h-3.683c-1.213 0-2.167.997-2.167 2.21v19.847c0 1.213.953 2.21 2.167 2.21h21.667c1.213 0 2.167-.997 2.167-2.21v-14.344c-.001-1.213-.954-2.21-2.168-2.21zm0-4.42h-13.043c-.217 0-.347.217-.217.39l.867 1.473c.087.217.26.347.477.347h11.917c.607 0 1.213.13 1.69.347.216.13.476-.044.476-.347 0-1.213-.953-2.21-2.167-2.21z" fill="#fff"/></svg>