<svg xmlns="http://www.w3.org/2000/svg" aria-label="images" enable-background="new 0 0 60 60" focusable="false" height="60" role="img" viewBox="0 0 60 60" width="60"><title>images</title><path clip-rule="evenodd" d="m3.753 60c-2.073 0-3.753-1.667-3.753-3.753v-52.494c0-2.073 1.667-3.753 3.753-3.753h52.494c2.073 0 3.753 1.667 3.753 3.753v52.493c0 2.074-1.667 3.754-3.753 3.754z" fill="#92ea00" fill-rule="evenodd"></path><path d="m22.99 20.962h14.02c.401 0 .651-.451.401-.751l-1.652-2.554c-.501-1.001-1.552-1.652-2.704-1.652h-6.109c-1.152 0-2.203.651-2.704 1.652l-1.652 2.554c-.251.3-.001.751.4.751zm7.01 9.013c-2.203 0-4.006 1.803-4.006 4.006s1.803 4.006 4.006 4.006 4.006-1.803 4.006-4.006-1.803-4.006-4.006-4.006zm12.017-6.009h-24.034c-1.652 0-3.004 1.352-3.004 3.004v14.02c0 1.652 1.352 3.004 3.004 3.004h24.034c1.652 0 3.004-1.352 3.004-3.004v-14.02c0-1.652-1.351-3.004-3.004-3.004zm-12.017 17.025c-3.856 0-7.01-3.155-7.01-7.01s3.155-7.01 7.01-7.01 7.01 3.155 7.01 7.01-3.154 7.01-7.01 7.01z" fill="#fff"></path></svg>