<svg enable-background="new 0 0 60 60" viewBox="0 0 60 60" width="60" height="60" xmlns="http://www.w3.org/2000/svg"><path clip-rule="evenodd" d="m3.753 60c-2.073 0-3.753-1.667-3.753-3.753v-52.494c0-2.073 1.667-3.753 3.753-3.753h52.494c2.073 0 3.753 1.667 3.753 3.753v52.493c0 2.074-1.667 3.754-3.753 3.754z" fill="#f58020" fill-rule="evenodd"/><path d="m30.806 40.008c-.463-.051-.875-.103-1.337-.206s-.926-.206-1.389-.36c-.257-.103-.566-.051-.772.154l-.309.309c-1.852 1.852-4.835 2.058-6.842.36-2.161-1.903-2.263-5.196-.257-7.202l4.887-4.887c.617-.617 1.389-1.08 2.212-1.286 1.029-.257 2.109-.206 3.086.206.617.257 1.183.617 1.646 1.08.257.257.463.566.617.875.257.412.823.514 1.183.154l1.8-1.8c.257-.257.309-.669.051-.977-.257-.36-.566-.72-.875-1.029-.463-.463-.977-.875-1.543-1.235-.926-.566-1.955-.977-2.984-1.183-2.006-.412-4.167-.103-6.019.926-.72.412-1.389.875-2.006 1.492l-4.733 4.733c-3.395 3.395-3.652 8.899-.412 12.397 3.447 3.704 9.208 3.807 12.757.257l1.595-1.595c.519-.36.261-1.132-.356-1.183zm11.832-23.098c-3.498-3.241-9.054-2.984-12.397.412l-1.492 1.389c-.463.463-.154 1.183.463 1.235.926.051 1.8.257 2.726.566.257.103.566 0 .772-.154l.309-.309c1.852-1.852 4.835-2.058 6.842-.36 2.161 1.903 2.263 5.196.257 7.202l-4.887 4.887c-.617.617-1.389 1.08-2.212 1.286-1.029.257-2.109.206-3.086-.206-.617-.257-1.183-.617-1.646-1.08-.257-.257-.463-.514-.617-.823-.257-.412-.823-.514-1.183-.154l-1.8 1.8c-.257.257-.309.669-.051.977.257.36.566.72.875 1.029.463.463.977.875 1.543 1.235.926.514 1.955.875 2.984 1.08 2.006.412 4.167.103 6.019-.926.72-.412 1.389-.875 2.006-1.492l4.887-4.887c3.443-3.499 3.391-9.311-.312-12.707z" fill="#fff"/></svg>