<svg enable-background="new 0 0 52 52" viewBox="0 0 52 52" width="52" height="52" xmlns="http://www.w3.org/2000/svg"><path d="m26 4c-13.3 0-24 9.8-24 22 0 3.9 1.1 7.5 3 10.8.2.4.3.9.2 1.3l-2.2 6.9c-.4 1.3.8 2.4 2.1 2l7-2.4c.5-.2 1-.1 1.4.2 3.7 2.1 8 3.3 12.6 3.3 13.3 0 24-9.8 24-22-.3-12.3-11-22.1-24.1-22.1zm-8.55 30.85c0 .9-.7 1.6-1.6 1.6h-1.6c-.9 0-1.6-.7-1.6-1.6v-1.6c0-.9.7-1.6 1.6-1.6h1.6c.9 0 1.6.7 1.6 1.6zm0-8c0 .9-.7 1.6-1.6 1.6h-1.6c-.9 0-1.6-.7-1.6-1.6v-1.6c0-.9.7-1.6 1.6-1.6h1.6c.9 0 1.6.7 1.6 1.6zm0-8c0 .9-.7 1.6-1.6 1.6h-1.6c-.9 0-1.6-.7-1.6-1.6v-1.6c0-.9.7-1.6 1.6-1.6h1.6c.9 0 1.6.7 1.6 1.6zm22 16c0 .9-.7 1.6-1.6 1.6h-15.7c-.9 0-1.6-.7-1.6-1.6v-1.6c0-.9.7-1.6 1.6-1.6h15.7c.9 0 1.6.7 1.6 1.6zm0-8c0 .9-.7 1.6-1.6 1.6h-15.7c-.9 0-1.6-.7-1.6-1.6v-1.6c0-.9.7-1.6 1.6-1.6h15.7c.9 0 1.6.7 1.6 1.6zm0-8c0 .9-.7 1.6-1.6 1.6h-15.7c-.9 0-1.6-.7-1.6-1.6v-1.6c0-.9.7-1.6 1.6-1.6h15.7c.9 0 1.6.7 1.6 1.6z" fill="#1D4F76"/></svg>