<svg enable-background="new 0 0 60 60" viewBox="0 0 60 60" width="60" height="60" xmlns="http://www.w3.org/2000/svg"><path clip-rule="evenodd" d="m3.753 60c-2.073 0-3.753-1.667-3.753-3.753v-52.494c0-2.073 1.667-3.753 3.753-3.753h52.494c2.073 0 3.753 1.667 3.753 3.753v52.493c0 2.074-1.667 3.754-3.753 3.754z" fill="#ecad00" fill-rule="evenodd"/><path clip-rule="evenodd" d="m29.364 33.159c.401.35.952.35 1.353 0l14.178-13.093c.251-.5.2-1.299-.802-1.299l-28.056.05c-.751 0-1.353.7-.802 1.299zm14.408-8.19-11 10.195c-.75.7-1.7 1.05-2.7 1.05s-1.95-.35-2.7-1.05l-11.05-10.195c-.5-.45-1.25-.1-1.25.55l-.05 12.717c0 1.649 1.35 2.999 3 2.999h24c1.65 0 3-1.349 3-2.999-.05 0 0-8.718 0-12.717 0 0-.455-1.248-1.25-.55z" fill="#fff" fill-rule="evenodd"/></svg>