<?xml version="1.0"?><svg xmlns="http://www.w3.org/2000/svg" aria-label="salesforce standard lead list" focusable="false" height="60" role="img" viewBox="0 0 100 100" width="60"><title>salesforce standard lead list</title><path d="m37.1 62.3h39.9c1.1 0 2 0.9 2 2v4c0 1.1-0.9 2-2 2h-39.9c-1.1 0-2-0.9-2-2v-4c0-1.1 0.9-2 2-2z m-12.1 8h-4c-1.1 0-2-0.9-2-2v-4c0-1.1 0.9-2 2-2h4c1.1 0 2 0.9 2 2v4c0.1 1-0.7 1.9-1.8 2h-0.2z m0-17.9h-4c-1.1 0-2-0.9-2-2v-4c0-1.1 0.9-2 2-2h4c1.1 0 2 0.9 2 2v4c0.1 1-0.7 1.9-1.8 2h-0.2z m0-17.9h-4c-1.1 0-2-0.9-2-2v-4c0-1.1 0.9-2 2-2h4c1.1 0 2 0.9 2 2v4c0.1 1-0.7 1.9-1.8 2h-0.2z m12.1 9.9h35.1c1.1 0 2 0.9 2 2v4c0 1.1-0.9 2-2 2h-35.1c-1.1 0-2-0.9-2-2v-4c0-1.1 0.9-2 2-2z m0-17.8h39.9c1.1 0 2 0.9 2 2v4c0 1.1-0.9 2-2 2h-39.9c-1.1 0-2-0.9-2-2v-4c0-1.1 0.9-2 2-2z" fill="#fff"></path></svg>