<?xml version="1.0"?><svg xmlns="http://www.w3.org/2000/svg" aria-label="salesforce standard product item transaction" focusable="false" height="60" role="img" viewBox="0 0 100 100" width="60"><title>salesforce standard product item transaction</title><rect fill="#fff" height="16" rx="4" ry="4" width="60" x="19" y="18.92"></rect><rect fill="#fff" height="16" rx="4" ry="4" width="27" x="19" y="40.92"></rect><rect fill="#fff" height="16" rx="4" ry="4" width="27" x="19" y="62.92"></rect><path d="m65 72.5a1.4 1.4 0 0 0 2 0l11.5-11.4a1.4 1.4 0 0 0 0-2.1l-11.5-11.5a1.4 1.4 0 0 0-2.1 0l-2.1 2.1a1.4 1.4 0 0 0 0 2.1l3.6 3.6a1 1 0 0 1-0.7 1.7h-12.1a1.6 1.6 0 0 0-1.6 1.5v3a1.7 1.7 0 0 0 1.6 1.5h12.2a1 1 0 0 1 0.7 1.7l-3.6 3.6a1.4 1.4 0 0 0 0 2.1z" fill="#fff"></path></svg>