<?xml version="1.0"?><svg xmlns="http://www.w3.org/2000/svg" aria-label="salesforce doctype gform" focusable="false" height="64" role="img" viewBox="0 0 56 64" width="56"><title>salesforce doctype gform</title><path d="m5.1 0c-2.8 0-5.1 2.2-5.1 5v53.9c0 2.8 2.3 5.1 5.1 5.1h45.8c2.8 0 5.1-2.3 5.1-5.1v-38.6l-18.9-20.3h-32z" fill="#673AB7"></path><path d="m56 20.4v1h-12.8s-6.3-1.3-6.2-6.8c0 0 0.3 5.8 6.1 5.8h12.9z" fill="#45317C"></path><path d="m37.1 0v14.6c0 1.6 1.1 5.8 6.1 5.8h12.8l-18.9-20.4z" enable-background="new" fill="#fff" opacity=".5"></path><path d="m12.7 39.4c0-0.4-0.3-0.7-0.7-0.7h-1.3c-0.4 0-0.7 0.3-0.7 0.7v1.3c0 0.4 0.3 0.7 0.7 0.7h1.3c0.4 0 0.7-0.3 0.7-0.7v-1.3z m18.8 0c0-0.4-0.3-0.7-0.7-0.7h-15.7c-0.4 0-0.7 0.3-0.7 0.7v1.3c0 0.4 0.3 0.7 0.7 0.7h15.7c0.4 0 0.7-0.3 0.7-0.7v-1.3z m-18.8 6.3c0-0.4-0.3-0.7-0.7-0.7h-1.3c-0.4 0-0.7 0.3-0.7 0.7v1.3c0 0.4 0.3 0.7 0.7 0.7h1.3c0.4 0 0.7-0.3 0.7-0.7v-1.3z m18.8 0c0-0.4-0.4-0.7-0.8-0.7h-15.5c-0.4 0-0.8 0.3-0.8 0.7v1.3c0 0.4 0.4 0.7 0.8 0.7h15.5c0.4 0 0.8-0.3 0.8-0.7v-1.3z m-18.8 6.2c0-0.4-0.3-0.7-0.7-0.7h-1.3c-0.4 0-0.7 0.3-0.7 0.7v1.3c0 0.4 0.3 0.7 0.7 0.7h1.3c0.4 0 0.7-0.3 0.7-0.7v-1.3z m18.8 0c0-0.4-0.3-0.7-0.7-0.7h-15.7c-0.4 0-0.7 0.3-0.7 0.7v1.3c0 0.4 0.3 0.7 0.7 0.7h15.7c0.4 0 0.7-0.3 0.7-0.7v-1.3z" fill="#fff"></path></svg>