<svg enable-background="new 0 0 15 12" viewBox="0 0 15 12" xmlns="http://www.w3.org/2000/svg">
<g fill="currentColor">
<path class="coveo-active-shape-svg" d="m10.936 2.021 0 0c0 .549-.452.998-1.004.998h-1.004c-.552 0-1.004-.449-1.004-.998l0 0c0-.549.452-.998 1.004-.998h1.004c.552 0 1.004.449 1.004.998z"/>
<path class="coveo-active-shape-svg" d="m12.943 5.015 0 0c0 .549-.452.998-1.004.998h-3.011c-.552 0-1.004-.449-1.004-.998l0 0c0-.549.452-.998 1.004-.998h3.011c.553 0 1.004.449 1.004.998z"/>
<path class="coveo-active-shape-svg" d="m15 8.008 0 0c0 .549-.452.998-1.004.998h-5.068c-.552 0-1.004-.449-1.004-.998l0 0c0-.549.452-.998 1.004-.998h5.068c.552 0 1.004.449 1.004.998z"/>
<path d="m6.521 2.683-2.403-2.391c-.188-.187-.444-.292-.71-.292s-.521.105-.71.292l-2.404 2.391c-.392.39-.392 1.021 0 1.411s1.027.39 1.419 0l .691-.687v7.594c0 .55.452.999 1.004.999s1.004-.449 1.004-.998v-7.594l.691.687c.392.39 1.027.39 1.419 0s .392-1.021-.001-1.412z"/>
</g>
</svg>
