<svg enable-background="new 0 0 11 11" viewBox="0 0 11 11" xmlns="http://www.w3.org/2000/svg">
<g class="coveo-more-svg" fill="none">
<path d="m10.083 4.583h-3.666v-3.666c0-.524-.393-.917-.917-.917s-.917.393-.917.917v3.667h-3.666c-.524-.001-.917.392-.917.916s.393.917.917.917h3.667v3.667c-.001.523.392.916.916.916s.917-.393.917-.917v-3.666h3.667c.523 0 .916-.393.916-.917-.001-.524-.394-.917-.917-.917z"/>
</g>
<g class="coveo-line-svg" fill="none">
<path d="m10 6.5h-9c-.552 0-1-.448-1-1 0-.552.448-1 1-1h9c .552 0 1 .448 1 1 0 .552-.448 1-1 1z"/>
</g>
<g class="coveo-exclusion-svg" fill="none">
<path d="m9.233 7.989-2.489-2.489 2.489-2.489c.356-.356.356-.889 0-1.244-.356-.356-.889-.356-1.244 0l-2.489 2.489-2.489-2.489c-.356-.356-.889-.356-1.244 0-.356.356-.356.889 0 1.244l2.489 2.489-2.489 2.489c-.356.356-.356.889 0 1.244.356.356.889.356 1.244 0l2.489-2.489 2.489 2.489c.356.356.889.356 1.244 0 .356-.355.356-.889 0-1.244z"/>
</g>
<g class="coveo-hook-svg" fill="none">
<path d="m10.252 2.213c-.155-.142-.354-.211-.573-.213-.215.005-.414.091-.561.24l-4.873 4.932-2.39-2.19c-.154-.144-.385-.214-.57-.214-.214.004-.415.09-.563.24-.148.147-.227.343-.222.549.005.207.093.4.249.542l2.905 2.662c.168.154.388.239.618.239h.022.003c.237-.007.457-.101.618-.266l5.362-5.428c.148-.148.228-.344.223-.551s-.093-.399-.248-.542z"/>
</g>
</svg>