<svg enable-background="new 0 0 178 63.82" viewBox="0 0 178 63.82" xmlns="http://www.w3.org/2000/svg"><g fill="#004a97"><path d="m24.089 41.561c-2.282-2.597-5.071-3.991-8.496-3.991-5.576 0-9.883 4.94-9.883 10.393 0 6.092 4.241 10.521 10.27 10.521 3.292 0 5.954-1.521 8.109-3.918v7.279c-2.597 1.397-5.198 1.975-8.176 1.975-8.749 0-15.913-6.715-15.913-15.599 0-9.185 7.098-15.972 16.229-15.972 2.659 0 5.579.634 7.859 1.964v7.348z"/><path d="m39.615 48.03c0 5.587 4.506 10.33 10.144 10.33 5.645 0 10.14-4.744 10.14-10.33 0-5.646-4.495-10.336-10.14-10.336-5.635 0-10.144 4.69-10.144 10.336m25.998 0c0 8.947-6.976 15.783-15.852 15.783-8.874 0-15.841-6.844-15.841-15.783 0-8.941 6.967-15.788 15.84-15.788 8.871.001 15.853 6.85 15.853 15.788"/><path d="m87.292 51.642 8.55-18.518h6.406l-14.956 30.692-14.897-30.682h6.402z"/><path d="m132.04 44.61c-.692-4.442-3.61-7.416-8.18-7.416-4.434 0-7.731 3.15-8.44 7.416zm-16.923 4.302c.052 5.082 3.485 9.831 8.936 9.831 4.378 0 6.723-2.221 8.878-5.772l4.816 2.73c-2.792 5.135-7.985 8.115-13.756 8.115-9.067 0-14.572-6.85-14.572-15.599 0-9.125 4.876-15.968 14.449-15.968 9.449 0 13.886 6.973 13.886 15.783v.881z"/><path d="m152.009 48.03c0 5.587 4.501 10.33 10.139 10.33 5.65 0 10.145-4.744 10.145-10.33 0-5.646-4.496-10.336-10.145-10.336-5.636 0-10.139 4.69-10.139 10.336m25.991 0c0 8.947-6.97 15.783-15.851 15.783-8.871 0-15.839-6.844-15.839-15.783 0-8.941 6.968-15.788 15.839-15.788 8.881.001 15.851 6.85 15.851 15.788"/></g><path d="m135.751 14.15-24.509-14.15v28.3z" fill="#ff8300"/></svg>