<svg enable-background="new 0 0 100 27.874" viewBox="0 0 100 27.874" xmlns="http://www.w3.org/2000/svg"><g fill="#bcc3ca"><path d="m32.799 18.136c-1.011-1.122-2.202-1.738-3.717-1.738-2.418 0-4.331 2.172-4.331 4.525 0 2.643 1.841 4.597 4.475 4.597 1.444 0 2.599-.652 3.537-1.701v3.186c-1.119.615-2.274.869-3.573.869-3.826 0-6.929-2.932-6.929-6.805 0-4.018 3.104-6.95 7.074-6.95 1.155 0 2.418.29 3.429.869z"/><path d="m50.916 20.959c0 3.91-3.032 6.878-6.929 6.878-3.862 0-6.929-2.968-6.929-6.878s3.032-6.878 6.929-6.878c3.898-.036 6.929 2.969 6.929 6.878m-11.332 0c0 2.425 1.949 4.489 4.439 4.489 2.454 0 4.439-2.063 4.439-4.489 0-2.462-1.949-4.525-4.439-4.525s-4.439 2.064-4.439 4.525"/><path d="m60.408 22.516 3.718-8.072h2.779l-6.497 13.393-6.532-13.393h2.815z"/><path d="m72.535 21.321c.036 2.208 1.516 4.272 3.898 4.272 1.913 0 2.923-.977 3.862-2.534l2.093 1.195c-1.227 2.244-3.501 3.548-5.991 3.548-3.97 0-6.352-3.005-6.352-6.805 0-3.982 2.129-6.95 6.316-6.95 4.114 0 6.063 3.041 6.063 6.878v.398h-9.889zm7.398-1.846c-.289-1.955-1.588-3.222-3.573-3.222-1.949 0-3.393 1.376-3.681 3.222z"/><path d="m100 20.959c0 3.91-3.032 6.878-6.929 6.878-3.862 0-6.929-2.968-6.929-6.878s3.032-6.878 6.929-6.878c3.861-.036 6.929 2.969 6.929 6.878m-11.369 0c0 2.425 1.949 4.489 4.439 4.489 2.454 0 4.439-2.063 4.439-4.489 0-2.462-1.949-4.525-4.439-4.525-2.454.001-4.439 2.064-4.439 4.525"/><path d="m81.666 6.263-10.719-6.263v12.344z"/><path d="m .987 8.394v3.385h-.987v-8.784h.987v.948c.461-.645 1.25-1.106 2.145-1.106 1.672 0 2.83 1.264 2.83 3.332 0 2.054-1.158 3.345-2.83 3.345-.868-.001-1.632-.409-2.145-1.12zm3.936-2.225c0-1.409-.763-2.449-2.04-2.449-.777 0-1.553.461-1.895 1.014v2.871c.342.552 1.118 1.026 1.895 1.026 1.276 0 2.04-1.053 2.04-2.462z"/><path d="m7.057 6.169c0-1.843 1.211-3.332 3.146-3.332s3.146 1.488 3.146 3.332c0 1.843-1.211 3.345-3.146 3.345-1.935-.001-3.146-1.502-3.146-3.345zm5.252 0c0-1.291-.75-2.449-2.106-2.449s-2.119 1.159-2.119 2.449c0 1.304.763 2.463 2.119 2.463 1.355-.001 2.106-1.16 2.106-2.463z"/><path d="m20.352 9.355-1.659-5.109-1.659 5.109h-.987l-2.027-6.36h1.027l1.553 5.07 1.672-5.07h.842l1.672 5.07 1.553-5.07h1.027l-2.027 6.36z"/><path d="m24.04 6.169c0-1.843 1.316-3.332 3.133-3.332 1.922 0 3.054 1.501 3.054 3.411v.25h-5.147c.079 1.198.921 2.199 2.29 2.199.724 0 1.461-.29 1.961-.803l.474.645c-.632.632-1.487.974-2.527.974-1.882 0-3.238-1.356-3.238-3.344zm3.12-2.516c-1.356 0-2.027 1.146-2.08 2.12h4.173c-.014-.948-.645-2.12-2.093-2.12z"/><path d="m31.715 9.355v-6.36h.987v1.027c.514-.671 1.251-1.159 2.119-1.159v1.014c-.118-.026-.237-.04-.395-.04-.605 0-1.435.501-1.724 1.014v4.504z"/><path d="m35.586 6.169c0-1.843 1.316-3.332 3.133-3.332 1.921 0 3.054 1.501 3.054 3.411v.25h-5.147c.079 1.198.922 2.199 2.291 2.199.724 0 1.461-.29 1.961-.803l.474.645c-.632.632-1.487.974-2.527.974-1.883 0-3.239-1.356-3.239-3.344zm3.119-2.516c-1.356 0-2.027 1.146-2.08 2.12h4.173c-.013-.948-.644-2.12-2.093-2.12z"/><path d="m47.868 9.355v-.948c-.474.645-1.25 1.106-2.145 1.106-1.659 0-2.83-1.264-2.83-3.332 0-2.028 1.159-3.345 2.83-3.345.855 0 1.632.421 2.145 1.119v-3.383h.987v8.783zm0-1.725v-2.884c-.355-.553-1.119-1.027-1.909-1.027-1.277 0-2.04 1.053-2.04 2.462s.764 2.45 2.04 2.45c.79 0 1.554-.448 1.909-1.001z"/><path d="m54.017 9.355v-8.783h.987v3.385c.513-.698 1.277-1.119 2.145-1.119 1.659 0 2.83 1.317 2.83 3.345 0 2.067-1.171 3.332-2.83 3.332-.895 0-1.672-.461-2.145-1.106v.948h-.987zm2.883-.724c1.29 0 2.054-1.041 2.054-2.45s-.764-2.462-2.054-2.462c-.777 0-1.553.474-1.895 1.027v2.884c.342.553 1.118 1.001 1.895 1.001z"/><path d="m61.284 10.949c.145.066.382.105.54.105.434 0 .724-.145.948-.671l.421-.961-2.658-6.426h1.065l2.119 5.215 2.106-5.215h1.079l-3.185 7.651c-.382.922-1.027 1.277-1.869 1.29-.211 0-.54-.04-.724-.092z"/></g></svg>