<svg version="1.1" id="prefix__Layer_1" xmlns="http://www.w3.org/2000/svg" x="0" y="0" viewBox="0 0 409.4 103.6" xml:space="preserve" aria-label="Powered By Coveo Logo"><style>.prefix__st0{fill:#282829}</style><path class="prefix__st0" d="M164.6 36.2l-4.9 5.2c-3.3-3.3-7-5.2-11.9-5.2-8.5 0-14.9 6.7-14.9 16.1s6.4 16.1 14.9 16.1c4.9 0 9.1-2.1 12.2-5.2l4.6 5.2c-4 4.6-9.7 7-16.4 7-14 0-23.1-10-23.1-23.1 0-13.4 9.1-23.4 23.1-23.4 6.6 0 12.4 2.7 16.4 7.3zM219.3 52.3c0 13.1-10 23.1-23.4 23.1-13.7 0-23.7-10-23.7-23.1 0-13.4 10-23.4 23.7-23.4 13.3 0 23.4 10 23.4 23.4zm-39.2 0c0 9.4 6.7 16.1 15.8 16.1 8.8 0 15.5-6.7 15.5-16.1s-6.7-16.1-15.5-16.1c-9.2 0-15.8 6.7-15.8 16.1zM252.1 74.5H243l-18.9-44.4h8.5l14.9 36.8 14.9-36.8h8.2zM318.6 52v3h-35c.9 9.1 7.3 13.7 14.9 13.7 5.5 0 10-1.8 14-5.2l4 5.2c-5.5 5.2-11.5 6.7-18.2 6.7-13.4 0-22.8-9.1-22.8-23.1 0-13.7 9.4-23.4 22.2-23.4 12.1 0 20.9 9.7 20.9 23.1zm-34.9-3.4h27.4c-.9-7.6-6.1-12.8-13.4-12.8-7.9.1-12.8 5.2-14 12.8zM375.8 52.3c0 13.1-10 23.1-23.4 23.1-13.7 0-23.7-10-23.7-23.1 0-13.4 10-23.4 23.7-23.4 13.4 0 23.4 10 23.4 23.4zm-39.2 0c0 9.4 6.7 16.1 15.8 16.1 8.8 0 15.5-6.7 15.5-16.1s-6.7-16.1-15.5-16.1c-9.1 0-15.8 6.7-15.8 16.1z"/><g><path class="prefix__st0" d="M394 30.2h-9v1.7h3.6V43h1.9V31.9h3.5v-1.7M409.4 30.2h-2l-3.7 8-3.7-8h-2V43h2v-8.6l3 6.3h1.5l2.9-6.3V43h2V30.2"/></g><g><path class="prefix__st0" d="M88.1 15C79.2 6.1 67.9 1.1 56.2 0 54.8-.1 54 1.6 55 2.6l18.7 18.7c.1.1 0 .3-.2.2-5.3-3.9-11.5-6.1-17.8-6.7-1-.1-1.5 1.1-.8 1.8l12.7 12.7c.1.1 0 .3-.2.2-3.5-2.4-7.5-3.8-11.6-4.2-.7-.1-1.1.8-.6 1.2l21.6 21.6c.5.5 1.3.1 1.2-.6-.4-4.1-1.8-8-4.2-11.5-.1-.1.1-.3.2-.2L86.2 48c.7.7 1.9.1 1.8-.8-.6-6.3-2.8-12.4-6.7-17.8-.1-.1.1-.3.2-.2L100.4 48c1 1 2.7.2 2.6-1.2-1-11.6-6-22.9-14.9-31.8M15 15C23.9 6.1 35.2 1.1 46.8 0 48.2-.1 49 1.6 48 2.6L29.4 21.3c-.1.1 0 .3.2.2 5.3-3.9 11.5-6.1 17.8-6.7 1-.1 1.5 1.1.8 1.8L35.4 29.3c-.1.1 0 .3.2.2 3.5-2.4 7.5-3.8 11.6-4.2.7-.1 1.1.8.6 1.2L26.1 48.2c-.5.5-1.3.1-1.2-.6.4-4.1 1.8-8 4.2-11.5.1-.1-.1-.3-.2-.2L16.6 48.1c-.7.7-1.9.1-1.8-.8.6-6.3 2.8-12.4 6.7-17.8.1-.1-.1-.3-.2-.2L2.6 48c-1 1-2.7.2-2.6-1.2C1.1 35.2 6.1 23.9 15 15M15 88.7c8.9 8.9 20.2 13.9 31.9 15 1.4.1 2.2-1.6 1.2-2.6L29.4 82.4c-.1-.1 0-.3.2-.2 5.3 3.9 11.5 6.1 17.8 6.7 1 .1 1.5-1.1.8-1.8L35.4 74.3c-.1-.1 0-.3.2-.2 3.5 2.4 7.5 3.8 11.6 4.2.7.1 1.1-.8.6-1.2L26.1 55.4c-.5-.5-1.3-.1-1.2.6.4 4.1 1.8 8 4.2 11.5.1.1-.1.3-.2.2L16.6 55.5c-.7-.7-1.9-.1-1.8.8.6 6.3 2.8 12.4 6.7 17.8.1.1-.1.3-.2.2L2.6 55.6c-1-1-2.7-.2-2.6 1.2 1.1 11.7 6.1 23 15 31.9M88.1 88.7c-8.9 8.9-20.2 13.9-31.9 15-1.4.1-2.2-1.6-1.2-2.6l18.7-18.7c.1-.1 0-.3-.2-.2-5.3 3.8-11.5 6.1-17.8 6.6-1 .1-1.5-1.1-.8-1.8l12.7-12.7c.1-.1 0-.3-.2-.2-3.5 2.4-7.5 3.8-11.6 4.2-.7.1-1.1-.8-.6-1.2l21.6-21.6c.5-.5 1.3-.1 1.2.6-.4 4.1-1.8 8-4.2 11.5-.1.1.1.3.2.2l12.2-12.2c.7-.7 1.9-.1 1.8.8-.6 6.3-2.8 12.4-6.7 17.8-.1.1.1.3.2.2l18.7-18.7c1-1 2.7-.2 2.6 1.2-.8 11.6-5.8 22.9-14.7 31.8"/></g></svg>