<svg enable-background="new 0 0 15 12" viewBox="0 0 15 12" xmlns="http://www.w3.org/2000/svg">
<g fill="currentColor">
<path d="m6.521 7.906c-.392-.39-1.027-.39-1.419 0l-.69.686v-7.594c0-.549-.452-.998-1.004-.998s-1.004.449-1.004.998v7.594l-.69-.686c-.392-.39-1.027-.39-1.419 0-.392.39-.392 1.021 0 1.411l2.404 2.391c.188.187.443.292.709.292s.522-.105.71-.292l2.404-2.391c.392-.391.392-1.022-.001-1.411z"/>
<path class="coveo-active-shape-svg" d="m9.932 11.001h-1.004c-.552 0-1.004-.449-1.004-.998l0 0c0-.549.452-.998 1.004-.998h1.004c.552 0 1.004.449 1.004.998l0 0c0 .549-.452.998-1.004.998z"/>
<path class="coveo-active-shape-svg" d="m11.94 8.007h-3.012c-.552 0-1.004-.449-1.004-.998l0 0c0-.549.452-.998 1.004-.998h3.011c.552 0 1.004.449 1.004.998l0 0c0 .549-.451.998-1.003.998z"/>
<path class="coveo-active-shape-svg" d="m13.996 5.014h-5.068c-.552 0-1.004-.449-1.004-.998l0 0c0-.549.452-.998 1.004-.998h5.068c.552 0 1.004.449 1.004.998l0 0c0 .548-.452.998-1.004.998z"/>
</g>
</svg>