<svg viewBox="0 0 18 14" xmlns="http://www.w3.org/2000/svg">
<g fill="currentColor" fill-rule="evenodd">
<path class="coveo-active-shape-svg" d="m12.1 13.5c-.426 0-.771-.332-.771-.74 0-.409.346-.74.771-.74h1.862c1.374 0 2.49-1.136 2.49-2.534v-.193c0-1.144-.756-2.15-1.839-2.448l-.488-.134-.066-.484c-.132-.979-1.11-1.673-2.041-1.458l-.635.143-.253-.578c-.626-1.429-2.024-2.352-3.562-2.352-2.147 0-3.892 1.769-3.892 3.944 0 .082.002.164.007.246l.032.541-.529.192c-.986.359-1.65 1.319-1.65 2.388v.192c0 1.398 1.117 2.535 2.49 2.535h.782c.426 0 .771.332.771.74 0 .409-.346.74-.771.74h-.782c-2.224 0-4.03-1.802-4.03-4.02v-.192c0-1.496.842-2.861 2.143-3.549.097-2.908 2.496-5.243 5.432-5.243 1.968 0 3.767 1.061 4.726 2.747 1.501-.024 2.798.945 3.198 2.327 1.495.61 2.501 2.077 2.501 3.717v.193c0 2.215-1.808 4.02-4.03 4.02h-1.863" />
<path d="m9 5.234c-.098-.149-.3-.233-.511-.234-.212 0-.413.084-.561.232l-3.193 3.176c-.311.309-.312.812-.003 1.123.155.156.359.233.563.233.202 0 .406-.076.56-.231l1.822-1.813v5.485c0 .438.356.794.794.794.438 0 .794-.356.794-.794v-5.504l1.82 1.83c.309.311.812.312 1.122.002.31-.309.312-.812.002-1.123l-3.21-3.176" />
</g>
</svg>