<svg enable-background="new 0 0 12 16" viewBox="0 0 12 16" xmlns="http://www.w3.org/2000/svg">
<g class="coveo-dropdown-authenticate-svg" fill="none">
<path d="m10 5h-8c-1.1 0-2 .9-2 2v5c0 1.1.9 2 2 2h8c1.1 0 2-.9 2-2v-5c0-1.1-.9-2-2-2m0 1.5c.3 0 .5.2.5.5v5c0 .3-.2.5-.5.5h-8c-.3 0-.5-.2-.5-.5v-5c0-.3.2-.5.5-.5z"/>
<path d="m10 5h-1.6v-1.1c0-1.3-1.1-2.4-2.4-2.4s-2.4 1.1-2.4 2.4v1.1h-1.6v-1.1c0-2.1 1.8-3.9 4-3.9s4 1.8 4 3.9z"/>
</g>
<g class="coveo-dropdown-authenticate-hover-svg" fill="none">
<path class="coveo-active-shape-svg" d="m10 7h-8c-1.1 0-2 .9-2 2v5c0 1.1.9 2 2 2h8c1.1 0 2-.9 2-2v-5c0-1.1-.9-2-2-2m0 1.5c.3 0 .5.2.5.5v5c0 .3-.2.5-.5.5h-8c-.3 0-.5-.2-.5-.5v-5c0-.3.2-.5.5-.5z"/>
<path d="m5.1.1c-1.8.4-3.1 2.1-3.1 4v2.9h1.6v-3.1c0-1.7 1.8-3 3.6-2.1.8.4 1.2 1.3 1.2 2.2v.6c0 .4.4.8.8.8s.8-.4.8-.8v-.7c0-2.4-2.3-4.4-4.9-3.8z"/>
</g>
</svg>