<svg enable-background="new 0 0 22 22" viewBox="0 0 22 22" xmlns="http://www.w3.org/2000/svg">
<g fill="currentColor">
<path class="coveo-active-shape-svg" d="m12.989 21.947h-3.978c-.752 0-1.388-.557-1.48-1.295l-.298-2.075c-.309-.154-.611-.33-.905-.526l-1.968.79c-.722.268-1.508-.028-1.858-.668l-1.977-3.419c-.366-.671-.207-1.47.365-1.922l1.669-1.306c-.013-.186-.019-.359-.019-.526s.006-.34.02-.526l-1.665-1.303c-.586-.462-.742-1.292-.365-1.932l1.985-3.434c.343-.633 1.136-.923 1.836-.65l1.98.796c.3-.2.6-.375.901-.527l.301-2.096c.089-.719.726-1.275 1.478-1.275h3.979c.753 0 1.39.557 1.479 1.296l.298 2.074c.31.154.611.33.905.526l1.968-.791c.721-.263 1.508.028 1.857.667l1.979 3.421c.365.671.207 1.47-.365 1.922l-1.669 1.305c.012.166.02.342.02.527s-.008.361-.02.526l1.665 1.302c.576.457.734 1.256.381 1.903l-2 3.463c-.35.636-1.146.922-1.84.649l-1.978-.794c-.301.199-.6.374-.902.526l-.3 2.095c-.088.72-.725 1.277-1.478 1.277m-3.539-2h3.1l.396-2.762.529-.217c.485-.2.964-.478 1.461-.851l.45-.337 2.585 1.038 1.554-2.688-2.198-1.718.071-.563c.035-.277.062-.555.062-.85s-.027-.572-.062-.85l-.071-.563 2.198-1.718-1.555-2.688-2.592 1.042-.452-.348c-.466-.358-.94-.633-1.451-.843l-.529-.217-.396-2.761h-3.1l-.396 2.762-.53.217c-.485.199-.962.477-1.46.85l-.451.337-2.584-1.038-1.554 2.688 2.196 1.718-.07.562c-.034.277-.061.564-.061.851s.027.573.062.852l.07.562-2.196 1.718 1.554 2.688 2.591-1.041.452.348c.465.356.939.632 1.452.843l.529.217z"/>
<path d="m11 15c-2.206 0-4-1.794-4-4s1.794-4 4-4 4 1.794 4 4-1.794 4-4 4m0-6c-1.103 0-2 .897-2 2s .897 2 2 2 2-.897 2-2-.897-2-2-2"/>
</g>
</svg>