<svg enable-background="new 0 0 15 12" viewBox="0 0 15 12" xmlns="http://www.w3.org/2000/svg">
  <g fill="currentColor">
    <path d="m9.224 11.999c-.198 0-.496-.103-.694-.308-.397-.411-.397-1.025 0-1.436l3.965-4.409-3.966-4.102c-.397-.411-.397-1.025 0-1.436s.991-.411 1.388 0l4.859 4.922c.298.308.298.718 0 1.025l-4.859 5.435c-.198.206-.496.309-.693.309"/>
    <path class="coveo-active-shape-svg" d="m4.958.411c-.397-.411-.991-.411-1.388 0s-.397 1.025 0 1.436l2.973 2.974h-5.552c-.594 0-.991.41-.991 1.025s.397 1.025.991 1.025h5.651l-3.074 3.384c-.397.411-.397 1.025 0 1.436.199.206.398.309.695.309.298 0 .495-.103.694-.308l4.859-5.333c.298-.308.298-.718 0-1.025z"/>
  </g>
</svg>