<svg enable-background="new 0 0 14 14" viewBox="0 0 14 14" xmlns="http://www.w3.org/2000/svg">
<g fill="currentColor" transform="matrix(0 1 -1 0 20 0)">
<path d="m7.699 8.591 1.05 1.05c.49.49 1.05 0 1.05 0s .49-.56 0-1.05l-2.31-2.381c-.28-.28-.7-.28-.98 0l-2.309 2.451c-.49.49 0 .98 0 .98s.56.49 1.05 0l1.05-1.05v7.91c0 .42.35.7.7.7s.7-.35.7-.7z"/>
<path class="coveo-active-shape-svg" d="m10.5 12.301h2.033l.065 6.301h-11.198v-6.301h2.1c.386 0 .7-.314.7-.7l0 0c0-.386-.314-.7-.7-.7h-2.806c-.383-.001-.694.31-.694.694v7.706c0 .385.318.699.694.699h12.607c.384 0 .699-.315.699-.699v-7.7c0-.386-.316-.699-.694-.699h-2.806c-.386 0-.7.314-.7.7l0 0c0 .385.314.699.7.699z"/>
</g>
</svg>