<svg enable-background="new 0 0 16 16" viewBox="0 0 16 16" xmlns="http://www.w3.org/2000/svg">
  <g fill="currentColor">
    <path class="coveo-active-shape-svg" d="m14 2v12h-12v-12zm1.306-2h-14.607c-.386 0-.699.318-.699.694v14.607c0 .384.315.699.699.699h14.602c.385 0 .699-.316.699-.694v-14.612c0-.383-.311-.694-.694-.694z"/>
    <path d="m10.969 7.055h-1.97v-1.968c0-.571-.448-1.032-1-1.032s-1 .462-1 1.032v1.969h-1.969c-.57 0-1.032.448-1.032 1s .463 1 1.032 1h1.97v1.969c0 .57.448 1.032 1 1.032s1-.463 1-1.032v-1.97h1.969c.571 0 1.032-.448 1.032-1 .001-.552-.462-1-1.032-1z"/>
  </g>
</svg>