<svg enable-background="new 0 0 18 18" viewBox="0 0 18 18" xmlns="http://www.w3.org/2000/svg">
<g fill="currentColor">
<path d="m16.76 8.051c-.448 0-.855-.303-.969-.757-.78-3.117-3.573-5.294-6.791-5.294s-6.01 2.177-6.79 5.294c-.134.537-.679.861-1.213.727-.536-.134-.861-.677-.728-1.212 1.004-4.009 4.594-6.809 8.731-6.809 4.138 0 7.728 2.8 8.73 6.809.135.536-.191 1.079-.727 1.213-.081.02-.162.029-.243.029z"/><path d="m9 18c-4.238 0-7.943-3.007-8.809-7.149-.113-.541.234-1.071.774-1.184.541-.112 1.071.232 1.184.773.674 3.222 3.555 5.56 6.851 5.56s6.178-2.338 6.852-5.56c.113-.539.634-.892 1.184-.773.54.112.887.643.773 1.184-.866 4.142-4.57 7.149-8.809 7.149z"/></g></svg>