<svg enable-background="new 0 0 16 16" viewBox="0 0 16 16" xmlns="http://www.w3.org/2000/svg">
<g fill="currentColor">
<path class="coveo-active-shape-svg" d="m7.991 16.002c4.425 0 8.01-3.581 8.01-7.992 0-4.425-3.581-8.01-7.999-8.01l-.003.003c-4.417 0-7.999 3.581-7.999 7.999 0 4.417 3.581 7.999 7.992 7.999m-.002-1.5c-3.58 0-6.493-2.916-6.493-6.5s2.916-6.5 6.5-6.5h.172c3.506.09 6.331 2.975 6.331 6.508 0 3.58-2.92 6.493-6.51 6.493"/>
<path d="m4.961 5.732c.192 0 .384.073.53.22l2.51 2.51 2.51-2.51c.293-.293.768-.293 1.061 0s .293.768 0 1.061l-3.041 3.04c-.141.14-.332.219-.53.219l0 0c-.199 0-.39-.079-.53-.22l-3.04-3.041c-.293-.293-.293-.768 0-1.061.146-.145.337-.218.53-.218z"/>
</g>
</svg>