<svg enable-background="new 0 0 19 14" viewBox="0 0 19 14" xmlns="http://www.w3.org/2000/svg">
<g fill="currentColor">
<path d="m19 12c0 .552-.397 1-.813 1h-11.375c-.416 0-.813-.448-.813-1s .397-1 .813-1h11.375c.416 0 .813.448.813 1"/><path d="m19 7c0 .552-.397 1-.813 1h-11.375c-.416 0-.813-.448-.813-1s .397-1 .813-1h11.375c.416 0 .813.448.813 1"/><path d="m19 2c0 .552-.397 1-.813 1h-11.375c-.416 0-.813-.448-.813-1s .397-1 .813-1h11.375c.416 0 .813.448.813 1"/><path d="m2 10c1.105 0 2 .895 2 2s-.895 2-2 2-2-.895-2-2 .895-2 2-2"/><path d="m2 5c1.105 0 2 .895 2 2s-.895 2-2 2-2-.895-2-2 .895-2 2-2"/><path d="m2 0c1.105 0 2 .895 2 2s-.895 2-2 2-2-.895-2-2 .895-2 2-2"/>
</g>
</svg>