<svg enable-background="new 0 0 16 16" viewBox="0 0 16 16" xmlns="http://www.w3.org/2000/svg">
<g fill="currentColor">
<path class="coveo-more-background-svg" fill-opacity="0" d="m8.03.819c3.987 0 7.227 3.222 7.227 7.181s-3.239 7.181-7.227 7.181c-3.976 0-7.209-3.222-7.209-7.181s3.237-7.181 7.209-7.181"/>
<path d="m0 8c0 4.416 3.572 8 7.991 8 4.425 0 8.009-3.581 8.009-8 0-4.416-3.581-8-8.009-8-4.416 0-7.991 3.581-7.991 8m8.031-6.4c3.553 0 6.441 2.872 6.441 6.4s-2.887 6.4-6.441 6.4c-3.544 0-6.425-2.872-6.425-6.4s2.885-6.4 6.425-6.4"/>
<path d="m10.988 9.024c.551 0 1-.449 1-1s-.449-1-1-1-1 .449-1 1 .449 1 1 1"/>
<path d="m7.991 9c .551 0 1-.449 1-1s-.449-1-1-1-1 .449-1 1 .449 1 1 1"/>
<path d="m4.994 9c .551 0 1-.449 1-1s-.449-1-1-1-1 .449-1 1 .449 1 1 1"/>
</g>
</svg>