<svg enable-background="new 0 0 18 18" viewBox="0 0 18 18" xmlns="http://www.w3.org/2000/svg">
<g fill="currentColor">
<path class="coveo-and-svg" d="m13.769 5.294h-1.063v-1.063c0-2.329-1.894-4.231-4.231-4.231h-4.244c-2.329 0-4.231 1.894-4.231 4.231v4.244c0 2.329 1.894 4.231 4.231 4.231h1.063v1.063c0 2.329 1.894 4.231 4.231 4.231h4.244c2.329 0 4.231-1.894 4.231-4.231v-4.244c0-2.329-1.894-4.231-4.231-4.231zm2.731 8.475c0 1.506-1.225 2.731-2.731 2.731h-4.244c-1.506 0-2.731-1.225-2.731-2.731v-2.563h-2.563c-1.506 0-2.731-1.225-2.731-2.731v-4.244c0-1.506 1.225-2.731 2.731-2.731h4.244c1.506 0 2.731 1.225 2.731 2.731v2.563h2.563c1.506 0 2.731 1.225 2.731 2.731z"/>
<path class="coveo-or-svg" d="m11.206 6.794v1.909c0 1.38-1.123 2.503-2.503 2.503h-1.909v-1.909c0-1.38 1.123-2.503 2.503-2.503zm1.5-1.5h-3.409c-2.209 0-4.003 1.792-4.003 4.003v3.409h3.409c2.209 0 4.003-1.792 4.003-4.003z"/>
</g>
</svg>