<svg enable-background="new 0 0 20 12" viewBox="0 0 20 12" xmlns="http://www.w3.org/2000/svg"><g fill="currentColor"><path d="m10 4.3c-1 0-1.7.8-1.7 1.7 0 1 .8 1.7 1.7 1.7 1 0 1.7-.8 1.7-1.7 0-1-.7-1.7-1.7-1.7m0 4.7c-1.6 0-3-1.4-3-3s1.4-3 3-3 3 1.4 3 3-1.4 3-3 3"/><path d="m19.8 6.4v-.001c.069-.117.109-.253.109-.399s-.04-.282-.109-.399v-.001c-.005-.008.005.007 0 0-2.203-3.473-5.917-5.6-9.8-5.6-3.884 0-7.655 2.091-9.8 5.602l0 0c-.069.117-.109.253-.109.398s.04.281.109.398c0 0-.001-.002 0 0 2.203 3.475 5.916 5.602 9.8 5.602 3.883 0 7.597-2.127 9.8-5.6.005-.007-.005.008 0 0zm-9.8 4.1c-3.236 0-6.28-1.635-8.189-4.339-.067-.095-.067-.228-.002-.324 1.908-2.797 4.953-4.337 8.191-4.337 3.235 0 6.278 1.634 8.187 4.337.068.096.068.231 0 .327-1.909 2.702-4.952 4.336-8.187 4.336z"/></g></svg>