<svg enable-background="new 0 0 15 14" viewBox="0 0 15 14" xmlns="http://www.w3.org/2000/svg">
<g fill="currentColor">
<path class="coveo-active-shape-svg" d="m13.002 4.076 0 0c0 .536-.439.975-.975.975h-2.925c-.536 0-.975-.439-.975-.975l0 0c0-.536.439-.975.975-.975h2.925c.537 0 .975.438.975.975z"/>
<path class="coveo-active-shape-svg" d="m13.002 9.925 0 0c0 .536-.439.975-.975.975h-2.925c-.536 0-.975-.439-.975-.975l0 0c0-.536.439-.975.975-.975h2.925c.537 0 .975.439.975.975z"/>
<path class="coveo-active-shape-svg" d="m15 7 0 0c0 .536-.439.975-.975.975h-4.923c-.536 0-.974-.438-.974-.975l0 0c0-.536.439-.975.975-.975h4.923c.535.001.974.439.974.975z"/>
<path d="m4.956 9.837-.671.671v-7.015l.671.671c.381.381.997.381 1.379 0 .381-.38.381-.997 0-1.379l-2.335-2.336c-.183-.184-.431-.286-.69-.286s-.506.102-.689.286l-2.335 2.336c-.381.381-.381.997 0 1.379s.997.381 1.379 0l .671-.671v7.015l-.671-.671c-.381-.381-.997-.381-1.379 0-.381.38-.381.997 0 1.379l2.335 2.336c.182.183.431.286.689.286s.506-.103.69-.287l2.335-2.336c.381-.381.381-.997 0-1.379-.382-.381-.998-.381-1.379.001z"/>
</g>
</svg>