<svg enable-background="new 0 0 60 60" viewBox="0 0 60 60" width="60" height="60" xmlns="http://www.w3.org/2000/svg"><path clip-rule="evenodd" d="m3.753 60c-2.073 0-3.753-1.667-3.753-3.753v-52.494c0-2.073 1.667-3.753 3.753-3.753h52.494c2.073 0 3.753 1.667 3.753 3.753v52.493c0 2.074-1.667 3.754-3.753 3.754z" fill="#621aff" fill-rule="evenodd"/><path d="m19.554 36.466v-15.917c-1.641 0-2.985 1.343-2.985 2.985v18.902c0 1.641 1.343 2.985 2.985 2.985h14.923c1.641 0 2.985-1.343 2.985-2.985h-11.939c-3.283 0-5.969 0-5.969-5.97zm22.882-12.932h-4.974c-1.641 0-2.985-1.343-2.985-2.985v-4.974c0-.547-.448-.995-.995-.995h-7.959c-1.641 0-2.985 1.343-2.985 2.985v18.902c0 1.641 1.343 2.985 2.985 2.985h14.923c1.641 0 2.985-1.343 2.985-2.985v-11.939c-.001-.547-.448-.994-.995-.994zm.795-4.179-4.576-4.576c-.149-.149-.298-.199-.497-.199-.398 0-.696.298-.696.696v3.283c0 1.094.895 1.99 1.99 1.99h3.283c.398 0 .696-.298.696-.696-.001-.199-.05-.349-.2-.498z" fill="#fff"/></svg>