<svg xmlns="http://www.w3.org/2000/svg" aria-label="kb" enable-background="new 0 0 60 60" focusable="false" height="60" role="img" viewBox="0 0 60 60" width="60"><title>kb</title><path clip-rule="evenodd" d="m3.753 60c-2.073 0-3.753-1.667-3.753-3.753v-52.494c0-2.073 1.667-3.753 3.753-3.753h52.494c2.073 0 3.753 1.667 3.753 3.753v52.493c0 2.074-1.667 3.754-3.753 3.754z" fill="#bcc3ca" fill-rule="evenodd"></path><path d="m21 35h6.5c.55 0 1-.45 1-1v-15c0-1.1-1-2-2-2h-5.35c-.65 0-1.15.5-1.15 1.15v15.85c0 .55.45 1 1 1zm22-15v16c0 1.1-.9 2-2 2h-22c-1.1 0-2-.9-2-2v-16c-1.65 0-3 1.35-3 3v15c0 1.65 1.35 3 3 3h9.5c.55 0 1 .45 1 1s .45 1 1 1h3c .55 0 1-.45 1-1s .45-1 1-1h9.5c1.65 0 3-1.35 3-3v-15c0-1.65-1.35-3-3-3zm-10.5 15h6.35c.65 0 1.15-.5 1.15-1.15v-15.85c0-.55-.45-1-1-1h-5.5c-1 0-2 .9-2 2v15c0 .55.45 1 1 1z" fill="#fff"></path></svg>