<?xml version="1.0"?><svg xmlns="http://www.w3.org/2000/svg" aria-label="salesforce standard product required" focusable="false" height="60" role="img" viewBox="0 0 100 100" width="60"><title>salesforce standard product required</title><rect fill="#fff" height="7.99" rx="2" ry="2" width="36.07" x="43.93" y="68.27"></rect><path d="m33.8 76.3h-4a2 2 0 0 1-2-2v-4a2 2 0 0 1 2-2h4a2 2 0 0 1 2 2v4a1.9 1.9 0 0 1-2 2z m0-17.9h-4a2 2 0 0 1-2-2v-4a2 2 0 0 1 2-2h4a2 2 0 0 1 2 2v4a1.9 1.9 0 0 1-2 2z" fill="#fff" fill-rule="evenodd"></path><rect fill="#fff" height="7.99" rx="2" ry="2" width="36.07" x="43.93" y="50.42"></rect><rect fill="#fff" height="7.99" rx="2" ry="2" width="30.08" x="49.92" y="32.57"></rect><path d="m47.5 26.3l-2.1-2.1a1.4 1.4 0 0 0-2.1 0l-13.2 13.1-5.4-5.2a1.4 1.4 0 0 0-2.1 0l-2.1 2.1a1.4 1.4 0 0 0 0 2.1l7.3 7.4a3 3 0 0 0 4.3 0l15.4-15.2a1.7 1.7 0 0 0 0-2.2z" fill="#fff" fill-rule="evenodd"></path></svg>