<?xml version="1.0"?><svg xmlns="http://www.w3.org/2000/svg" aria-label="salesforce standard macros" focusable="false" height="60" role="img" viewBox="0 0 100 100" width="60"><title>salesforce standard macros</title><path d="m21.3 33.7" fill="#fff"></path><path d="m64.7 67.5c-0.2 0.5-0.7 0.6-1.2 0.6h-5.8c-0.5 0-0.9-0.4-0.9-0.9 0-0.1 0.1-0.4 0.1-0.5l0.1-0.1 0.2-0.2 12.8-15.5c0.4-0.5 0.5-1.2 0.2-1.7 0-0.1-0.1-0.2-0.1-0.2l-13.2-15.8c-0.1-0.1-0.1-0.4-0.1-0.5 0-0.5 0.5-0.9 0.9-0.9h5.8c0.5 0 1 0.1 1.2 0.6l13.7 16.6c0.2 0.2 0.2 0.6 0.2 0.9 0 0.4-0.1 0.7-0.2 1l-13.7 16.6z m-14.3 0c-0.2 0.5-0.7 0.6-1.2 0.6h-5.8c-0.5 0-0.9-0.4-0.9-0.9 0-0.1 0.1-0.4 0.1-0.5l0.1-0.1 0.2-0.2 12.7-15.5c0.4-0.5 0.5-1.2 0.2-1.7 0-0.1-0.1-0.2-0.1-0.2l-13.1-15.8c-0.1-0.1-0.1-0.4-0.1-0.5 0-0.5 0.5-0.9 0.9-0.9h5.8c0.5 0 1 0.1 1.2 0.6l13.7 16.6c0.2 0.2 0.2 0.6 0.2 0.9 0 0.4-0.1 0.7-0.2 1l-13.7 16.6z m-14.4 0c-0.2 0.5-0.7 0.6-1.2 0.6h-10.9c-0.5 0-0.9-0.4-0.9-0.9 0-0.1 0.1-0.4 0.1-0.5l0.1-0.1 0.2-0.2 12.7-15.5c0.4-0.5 0.5-1.2 0.2-1.7 0-0.1-0.1-0.2-0.1-0.2l-13-15.8c-0.2-0.1-0.2-0.3-0.2-0.5 0-0.5 0.5-0.9 0.9-0.9h10.8c0.5 0 1 0.1 1.2 0.6l13.7 16.6c0.2 0.2 0.2 0.6 0.2 0.9 0 0.4-0.1 0.7-0.2 1l-13.6 16.6z" fill="#fff"></path></svg>