<?xml version="1.0"?><svg xmlns="http://www.w3.org/2000/svg" aria-label="salesforce standard performance" focusable="false" height="60" role="img" viewBox="0 0 100 100" width="60"><title>salesforce standard performance</title><path d="m30 20h-2c-3.3 0-6 3-6 6v48c0 3 2.7 6 6 6h2c1.1 0 2-0.9 2-2v-56c0-1.1-0.9-2-2-2z m42 0h-32c-1.1 0-2 0.9-2 2v56c0 1.1 0.9 2 2 2h32c3.3 0 6-2.7 6-6v-48c0-3.3-2.7-6-6-6z m-2.2 26.8l-5.2 5.3c-0.1 0.1-0.2 0.4-0.2 0.6l1.2 7.5c0.1 0.5-0.4 0.9-0.9 0.7l-6.5-3.6c-0.2-0.1-0.4-0.1-0.6 0l-6.5 3.6c-0.5 0.2-1-0.2-0.9-0.7l1.2-7.5c0-0.2 0-0.4-0.2-0.6l-5.2-5.3c-0.4-0.4-0.2-1 0.3-1.1l7.2-1.1c0.2 0 0.4-0.2 0.5-0.4l3.2-6.9c0.2-0.5 0.9-0.5 1.1 0l3.2 6.9c0.1 0.2 0.3 0.3 0.5 0.4l7.2 1.1c0.8 0.1 1 0.7 0.6 1.1z" fill="#fff"></path></svg>