<?xml version="1.0"?><svg xmlns="http://www.w3.org/2000/svg" aria-label="salesforce standard resource capacity" focusable="false" height="60" role="img" viewBox="0 0 100 100" width="60"><title>salesforce standard resource capacity</title><path d="m49.9 20a25.4 25.4 0 1 0 25.2 25.5c0-13.8-11.2-25.5-25.2-25.5z m17.7 26.4h-18.3v-19.4s6.9-0.4 13.1 6.1 5.2 13.3 5.2 13.3z m-41.6 17.8h-1.3a4.8 4.8 0 0 0-4.7 4.8v6.3a4.7 4.7 0 0 0 4.7 4.7h50.6a4.8 4.8 0 0 0 4.7-4.7v-6.3a4.7 4.7 0 0 0-4.7-4.8h-1.6a30.1 30.1 0 0 1-47.7 0z" fill="#fff" fill-rule="evenodd"></path></svg>