<svg enable-background="new 0 0 60 60" viewBox="0 0 60 60" width="60" height="60" xmlns="http://www.w3.org/2000/svg"><path clip-rule="evenodd" d="m3.753 60c-2.073 0-3.753-1.667-3.753-3.753v-52.494c0-2.073 1.667-3.753 3.753-3.753h52.494c2.073 0 3.753 1.667 3.753 3.753v52.493c0 2.074-1.667 3.754-3.753 3.754z" fill="#004990" fill-rule="evenodd"/><path d="m45 40.625v1.375c0 1.625-1.375 3-3 3h-24c-1.625 0-3-1.375-3-3v-1.375c0-3.625 4.25-5.875 8.25-7.625l.375-.188c.312-.125.625-.125.938.062 1.625 1.064 3.437 1.626 5.375 1.626s3.812-.625 5.375-1.625c.312-.188.625-.188.938-.062l.374.187c4.125 1.75 8.375 3.938 8.375 7.625zm-15-25.625c4.125 0 7.438 3.688 7.438 8.25s-3.313 8.25-7.438 8.25-7.438-3.688-7.438-8.25 3.313-8.25 7.438-8.25z" fill="#fff"/></svg>