<svg enable-background="new 0 0 60 60" viewBox="0 0 60 60" width="60" height="60" xmlns="http://www.w3.org/2000/svg"><path clip-rule="evenodd" d="m3.753 60c-2.073 0-3.753-1.667-3.753-3.753v-52.494c0-2.073 1.667-3.753 3.753-3.753h52.494c2.073 0 3.753 1.667 3.753 3.753v52.493c0 2.074-1.667 3.754-3.753 3.754z" fill="#cc0d00" fill-rule="evenodd"/><path d="m42.8 21.536h-8.96c-.267-.64-.64-1.173-1.12-1.653l3.36-4.32c.533-.693.427-1.707-.267-2.24-.693-.533-1.707-.427-2.24.267l-3.733 4.8c-.32 0-.587-.053-.907-.053s-.587.053-.853.053l-3.733-4.8c-.533-.693-1.547-.8-2.24-.267s-.8 1.547-.267 2.24l3.36 4.32c-.48.48-.853 1.013-1.12 1.653h-6.88c-1.76 0-3.2 1.44-3.2 3.2v14.933c0 1.76 1.44 3.2 3.2 3.2h25.6c1.76 0 3.2-1.44 3.2-3.2v-14.933c0-1.76-1.44-3.2-3.2-3.2zm-4.267 17.067c0 .587-.48 1.067-1.067 1.067h-19.2c-.587 0-1.067-.48-1.067-1.067v-12.8c0-.587.48-1.067 1.067-1.067h19.2c.587 0 1.067.48 1.067 1.067zm3.734-5.334c-.907 0-1.6-.693-1.6-1.6s.693-1.6 1.6-1.6 1.6.693 1.6 1.6-.694 1.6-1.6 1.6zm0-5.333c-.907 0-1.6-.693-1.6-1.6s.693-1.6 1.6-1.6 1.6.693 1.6 1.6-.694 1.6-1.6 1.6z" fill="#fff"/></svg>