<svg enable-background="new 0 0 60 60" viewBox="0 0 60 60" width="60" height="60" xmlns="http://www.w3.org/2000/svg"><path clip-rule="evenodd" d="m3.753 60c-2.073 0-3.753-1.667-3.753-3.753v-52.494c0-2.073 1.667-3.753 3.753-3.753h52.494c2.073 0 3.753 1.667 3.753 3.753v52.493c0 2.074-1.667 3.754-3.753 3.754z" fill="#263e55" fill-rule="evenodd"/><path d="m34.053 41.28c-.16-.373-.533-.587-.96-.587h-6.187c-.427 0-.8.213-.96.587l-1.44 3.947c-.16.373.107.747.48.747h10.027c.373 0 .64-.427.48-.747zm8.747-27.253h-25.6c-1.76 0-3.2 1.44-3.2 3.2v17.067c0 1.76 1.44 3.2 3.2 3.2h25.6c1.76 0 3.2-1.44 3.2-3.2v-17.067c0-1.76-1.44-3.2-3.2-3.2zm-12.8 22.4c-.907 0-1.6-.693-1.6-1.6s.693-1.6 1.6-1.6 1.6.693 1.6 1.6c0 .906-.693 1.6-1.6 1.6zm12.8-5.334c0 .587-.48 1.067-1.067 1.067h-23.466c-.587 0-1.067-.48-1.067-1.067v-12.8c0-.587.48-1.067 1.067-1.067h23.467c.587 0 1.067.48 1.067 1.067v12.8z" fill="#fff"/></svg>